<?xml version="1.0" encoding="utf-8"?>
<!-- Generator: Adobe Illustrator 20.1.0, SVG Export Plug-In . SVG Version: 6.00 Build 0)  -->
<svg version="1.1" id="Capa_1" xmlns="http://www.w3.org/2000/svg" xmlns:xlink="http://www.w3.org/1999/xlink" x="0px" y="0px"
	 viewBox="0 0 442.893 80.82" style="enable-background:new 0 0 442.893 80.82;" xml:space="preserve">
<style type="text/css">
	.st0{fill:#EBEDED;}
	.st1{fill:#092334;}
	.st2{fill:#FFFFFF;}
	.st3{fill:none;stroke:#092334;stroke-width:3;stroke-miterlimit:10;}
	.st4{fill:none;stroke:#092334;stroke-width:2;stroke-miterlimit:10;}
	.st5{fill:none;stroke:#092334;stroke-miterlimit:10;}
	.st6{fill:none;stroke:#092334;stroke-width:0.25;stroke-miterlimit:10;}
	.st7{fill:none;stroke:#282838;stroke-miterlimit:10;}
	.st8{fill:#282838;}
	.st9{fill:#F5F1ED;}
	.st10{fill:#008D36;}
	.st11{fill:none;stroke:#FFFFFF;stroke-width:0.5;stroke-miterlimit:10;}
	.st12{fill:#00A3E2;}
</style>
<g id="XMLID_46_">
	<path class="st2" d="M221.484,18.285c-0.35,0.642-0.779,1.221-1.289,1.737s-1.074,0.961-1.692,1.332
		c-0.619,0.372-1.289,0.659-2.01,0.863s-1.468,0.306-2.239,0.306c-1.136,0-2.206-0.219-3.211-0.655s-1.883-1.03-2.633-1.78
		s-1.344-1.628-1.78-2.633c-0.438-1.005-0.655-2.075-0.655-3.211s0.218-2.206,0.655-3.211c0.437-1.005,1.03-1.882,1.78-2.633
		c0.75-0.75,1.628-1.343,2.633-1.78c1.005-0.437,2.075-0.655,3.211-0.655c0.771,0,1.519,0.103,2.239,0.306
		c0.721,0.204,1.391,0.492,2.01,0.863c0.618,0.371,1.183,0.815,1.692,1.332c0.51,0.518,0.939,1.089,1.289,1.715l-2.861,1.158
		c-0.233-0.35-0.507-0.677-0.819-0.983c-0.313-0.306-0.659-0.575-1.038-0.808c-0.379-0.233-0.779-0.415-1.201-0.547
		c-0.423-0.131-0.859-0.196-1.311-0.196c-0.729,0-1.409,0.149-2.043,0.448c-0.633,0.299-1.184,0.695-1.649,1.19
		s-0.837,1.074-1.113,1.736c-0.277,0.663-0.415,1.352-0.415,2.064c0,0.729,0.138,1.42,0.415,2.075
		c0.276,0.655,0.647,1.231,1.113,1.726c0.466,0.496,1.017,0.893,1.649,1.191c0.634,0.298,1.314,0.447,2.043,0.447
		c0.451,0,0.888-0.065,1.311-0.196c0.422-0.131,0.822-0.313,1.201-0.546c0.379-0.233,0.725-0.506,1.038-0.819
		c0.312-0.313,0.586-0.645,0.819-0.994L221.484,18.285z"/>
	<path class="st2" d="M227.775,8.936v3.998h7.733v2.774h-7.733v3.757h8.717v2.753h-11.774V6.228h11.774v2.708H227.775z"/>
	<path class="st2" d="M254.078,22.218l-10.509-9.503v9.503h-3.058V6.249h0.327l10.508,9.655V6.249h3.059v15.969H254.078z"/>
	<path class="st2" d="M269.587,8.936h-4.565v13.282h-3.059V8.936h-4.588V6.228h12.212V8.936z"/>
	<path class="st2" d="M275.616,22.218h-3.058V6.228h7.265c0.817,0,1.564,0.135,2.243,0.403c0.678,0.27,1.258,0.648,1.739,1.137
		c0.481,0.487,0.857,1.07,1.127,1.747c0.27,0.678,0.405,1.417,0.405,2.218c0,1.209-0.303,2.265-0.908,3.167
		c-0.605,0.903-1.412,1.551-2.418,1.944c1.343,1.777,2.671,3.568,3.981,5.374h-3.648c-0.639-0.83-1.263-1.667-1.872-2.512
		c-0.61-0.845-1.22-1.704-1.829-2.578h-3.027V22.218z M275.616,14.419h4.203c0.275,0,0.562-0.055,0.859-0.164
		s0.562-0.276,0.795-0.502c0.231-0.226,0.425-0.506,0.577-0.841s0.229-0.729,0.229-1.18c0-0.233-0.029-0.51-0.087-0.83
		c-0.059-0.32-0.175-0.626-0.349-0.918c-0.174-0.291-0.421-0.538-0.74-0.742s-0.748-0.307-1.284-0.307h-4.203V14.419z"/>
	<path class="st2" d="M296.631,22.523c-1.136,0-2.206-0.219-3.211-0.655s-1.883-1.03-2.633-1.78s-1.344-1.628-1.78-2.633
		s-0.655-2.082-0.655-3.232c0-1.136,0.219-2.21,0.655-3.223c0.437-1.012,1.03-1.893,1.78-2.643s1.628-1.344,2.633-1.781
		c1.005-0.437,2.075-0.655,3.211-0.655c1.15,0,2.229,0.219,3.233,0.655c1.005,0.438,1.882,1.031,2.632,1.781s1.344,1.631,1.78,2.643
		c0.438,1.013,0.655,2.087,0.655,3.223c0,1.15-0.218,2.228-0.655,3.232c-0.437,1.005-1.03,1.883-1.78,2.633s-1.627,1.344-2.632,1.78
		S297.782,22.523,296.631,22.523z M296.642,8.783c-0.727,0-1.406,0.149-2.038,0.447c-0.633,0.299-1.185,0.696-1.657,1.19
		c-0.473,0.496-0.847,1.074-1.122,1.737c-0.276,0.663-0.414,1.351-0.414,2.064c0,0.729,0.138,1.42,0.414,2.075
		c0.275,0.655,0.649,1.234,1.122,1.736c0.473,0.503,1.024,0.903,1.657,1.202c0.632,0.298,1.312,0.447,2.038,0.447
		s1.406-0.149,2.038-0.447c0.632-0.299,1.185-0.699,1.657-1.202c0.472-0.502,0.847-1.081,1.122-1.736
		c0.276-0.655,0.415-1.347,0.415-2.075c0-0.714-0.139-1.401-0.415-2.064c-0.275-0.663-0.65-1.241-1.122-1.737
		c-0.473-0.494-1.025-0.892-1.657-1.19C298.048,8.933,297.369,8.783,296.642,8.783z"/>
	<path class="st2" d="M213.152,48.432h-6.304v-15.99h6.304c2.282,0,4.158,0.67,5.627,2.01c0.785,0.713,1.377,1.576,1.777,2.588
		c0.4,1.013,0.601,2.145,0.601,3.397c0,1.267-0.2,2.406-0.601,3.419c-0.4,1.012-0.992,1.875-1.777,2.588
		c-0.713,0.655-1.545,1.151-2.498,1.486C215.329,48.265,214.286,48.432,213.152,48.432z M209.906,45.723h3.255
		c0.568,0,1.144-0.065,1.727-0.196c0.582-0.131,1.11-0.39,1.583-0.775c0.474-0.386,0.863-0.921,1.169-1.605s0.459-1.58,0.459-2.688
		c0-1.106-0.153-2.006-0.459-2.698c-0.306-0.691-0.699-1.227-1.18-1.605c-0.48-0.378-1.013-0.633-1.595-0.765
		c-0.582-0.131-1.15-0.196-1.704-0.196h-3.255V45.723z"/>
	<path class="st2" d="M227.273,35.149v3.998h7.733v2.774h-7.733v3.757h8.717v2.753h-11.774v-15.99h11.774v2.708H227.273z"/>
	<path class="st2" d="M251.849,48.432h-3.059V32.463h3.059V48.432z"/>
	<path class="st2" d="M270.221,48.432l-10.509-9.503v9.503h-3.058V32.463h0.327l10.508,9.655v-9.655h3.059v15.969H270.221z"/>
	<path class="st2" d="M288.811,32.463l-7.603,15.969h-0.175l-7.58-15.969h3.364l4.304,9.263l4.303-9.263H288.811z"/>
	<path class="st2" d="M294.599,35.149v3.998h7.733v2.774h-7.733v3.757h8.717v2.753h-11.774v-15.99h11.774v2.708H294.599z"/>
	<path class="st2" d="M306.702,46.335l1.66-2.447c0.801,0.554,1.627,1.03,2.479,1.431c0.852,0.401,1.744,0.602,2.676,0.602
		c0.495,0,0.932-0.062,1.311-0.187c0.379-0.123,0.699-0.283,0.962-0.48c0.262-0.196,0.458-0.422,0.59-0.677
		c0.131-0.255,0.196-0.506,0.196-0.754c0-0.32-0.099-0.593-0.295-0.819c-0.196-0.226-0.459-0.411-0.786-0.557
		c-0.328-0.146-0.714-0.27-1.158-0.372c-0.444-0.102-0.906-0.196-1.387-0.283c-0.321-0.059-0.692-0.128-1.114-0.208
		c-0.423-0.08-0.859-0.188-1.311-0.327c-0.452-0.139-0.896-0.32-1.333-0.547c-0.437-0.226-0.83-0.509-1.18-0.852
		c-0.35-0.342-0.63-0.75-0.841-1.224c-0.212-0.473-0.317-1.03-0.317-1.671c0-0.932,0.189-1.707,0.568-2.326s0.863-1.107,1.453-1.464
		s1.245-0.608,1.966-0.754s1.416-0.219,2.086-0.219s1.268,0.044,1.791,0.132c0.524,0.087,1.013,0.215,1.464,0.382
		c0.451,0.168,0.893,0.379,1.322,0.634c0.429,0.255,0.892,0.557,1.387,0.906l-1.704,2.403c-0.757-0.524-1.485-0.925-2.185-1.201
		c-0.699-0.277-1.435-0.416-2.206-0.416c-0.262,0-0.561,0.033-0.896,0.099s-0.652,0.172-0.95,0.317
		c-0.299,0.146-0.547,0.331-0.743,0.557s-0.295,0.499-0.295,0.819s0.116,0.59,0.35,0.808c0.232,0.219,0.531,0.401,0.896,0.547
		s0.765,0.27,1.202,0.371c0.437,0.102,0.858,0.204,1.267,0.306c0.306,0.073,0.666,0.146,1.081,0.219s0.845,0.175,1.289,0.306
		s0.885,0.306,1.321,0.524c0.438,0.219,0.827,0.499,1.169,0.841c0.342,0.343,0.619,0.765,0.83,1.268
		c0.211,0.502,0.317,1.11,0.317,1.823c0,0.83-0.146,1.552-0.438,2.163s-0.706,1.118-1.245,1.519s-1.18,0.702-1.922,0.906
		c-0.743,0.204-1.566,0.306-2.469,0.306c-0.83,0-1.562-0.062-2.195-0.186c-0.634-0.123-1.213-0.291-1.737-0.502
		s-1.02-0.463-1.485-0.754S307.197,46.684,306.702,46.335z"/>
	<path class="st2" d="M333.2,35.149h-4.565v13.282h-3.059V35.149h-4.588v-2.708H333.2V35.149z"/>
	<path class="st2" d="M339.666,48.432h-3.059V32.463h3.059V48.432z"/>
	<path class="st2" d="M360.003,39.693c-0.015,0.306-0.021,0.59-0.021,0.853c-0.015,0.232-0.021,0.462-0.021,0.688
		c0,0.227-0.008,0.397-0.022,0.514c-0.087,1.005-0.36,1.937-0.819,2.796c-0.458,0.859-1.048,1.599-1.77,2.218
		c-0.721,0.619-1.551,1.103-2.49,1.452s-1.926,0.524-2.96,0.524c-1.136,0-2.206-0.219-3.211-0.655s-1.885-1.03-2.639-1.78
		s-1.352-1.628-1.791-2.633c-0.44-1.005-0.66-2.075-0.66-3.211s0.22-2.21,0.66-3.222c0.439-1.013,1.037-1.894,1.791-2.644
		s1.634-1.344,2.639-1.78c1.005-0.438,2.075-0.655,3.211-0.655c1.442,0,2.764,0.335,3.965,1.005c1.202,0.67,2.174,1.565,2.917,2.687
		l-2.622,1.595c-0.466-0.685-1.074-1.26-1.824-1.726s-1.562-0.699-2.436-0.699c-0.729,0-1.409,0.149-2.042,0.448
		c-0.634,0.299-1.188,0.695-1.66,1.19c-0.474,0.495-0.849,1.074-1.125,1.736c-0.277,0.663-0.415,1.352-0.415,2.064
		c0,0.729,0.138,1.42,0.415,2.075c0.276,0.655,0.651,1.231,1.125,1.726c0.473,0.496,1.026,0.893,1.66,1.191
		c0.633,0.298,1.313,0.447,2.042,0.447c0.554,0,1.085-0.083,1.595-0.251c0.51-0.167,0.976-0.404,1.398-0.71
		c0.422-0.306,0.79-0.67,1.103-1.093c0.313-0.422,0.543-0.888,0.688-1.397h-5.898v-2.753H360.003z"/>
	<path class="st2" d="M361.139,48.432l8.17-15.969h0.307l8.17,15.969h-3.32l-1.245-2.512h-7.537l-1.224,2.512H361.139z
		 M367.168,43.254h4.565l-2.271-4.827L367.168,43.254z"/>
	<path class="st2" d="M394.323,44.499c-0.35,0.642-0.779,1.221-1.289,1.737s-1.074,0.961-1.692,1.332
		c-0.619,0.372-1.289,0.659-2.01,0.863s-1.468,0.306-2.239,0.306c-1.136,0-2.206-0.219-3.211-0.655s-1.883-1.03-2.633-1.78
		s-1.344-1.628-1.78-2.633c-0.438-1.005-0.655-2.075-0.655-3.211s0.218-2.206,0.655-3.211c0.437-1.005,1.03-1.882,1.78-2.633
		c0.75-0.75,1.628-1.343,2.633-1.78c1.005-0.437,2.075-0.655,3.211-0.655c0.771,0,1.519,0.103,2.239,0.306
		c0.721,0.204,1.391,0.492,2.01,0.863c0.618,0.371,1.183,0.815,1.692,1.332c0.51,0.518,0.939,1.089,1.289,1.715l-2.861,1.158
		c-0.233-0.35-0.507-0.677-0.819-0.983c-0.313-0.306-0.659-0.575-1.038-0.808c-0.379-0.233-0.779-0.415-1.201-0.547
		c-0.423-0.131-0.859-0.196-1.311-0.196c-0.729,0-1.409,0.149-2.043,0.448c-0.633,0.299-1.184,0.695-1.649,1.19
		s-0.837,1.074-1.113,1.736c-0.277,0.663-0.415,1.352-0.415,2.064c0,0.729,0.138,1.42,0.415,2.075
		c0.276,0.655,0.647,1.231,1.113,1.726c0.466,0.496,1.017,0.893,1.649,1.191c0.634,0.298,1.314,0.447,2.043,0.447
		c0.451,0,0.888-0.065,1.311-0.196c0.422-0.131,0.822-0.313,1.201-0.546c0.379-0.233,0.725-0.506,1.038-0.819
		c0.312-0.313,0.586-0.645,0.819-0.994L394.323,44.499z"/>
	<path class="st2" d="M401.051,48.432h-3.059V32.463h3.059V48.432z"/>
	<path class="st2" d="M413.328,48.737c-1.136,0-2.206-0.219-3.211-0.655s-1.883-1.03-2.633-1.78s-1.344-1.628-1.78-2.633
		s-0.655-2.082-0.655-3.232c0-1.136,0.219-2.21,0.655-3.223c0.437-1.012,1.03-1.893,1.78-2.643s1.628-1.344,2.633-1.781
		c1.005-0.437,2.075-0.655,3.211-0.655c1.15,0,2.229,0.219,3.233,0.655c1.005,0.438,1.882,1.031,2.632,1.781s1.344,1.631,1.78,2.643
		c0.438,1.013,0.655,2.087,0.655,3.223c0,1.15-0.218,2.228-0.655,3.232c-0.437,1.005-1.03,1.883-1.78,2.633s-1.627,1.344-2.632,1.78
		S414.478,48.737,413.328,48.737z M413.338,34.997c-0.727,0-1.406,0.149-2.038,0.447c-0.633,0.299-1.185,0.696-1.657,1.19
		c-0.473,0.496-0.847,1.074-1.122,1.737c-0.276,0.663-0.414,1.351-0.414,2.064c0,0.729,0.138,1.42,0.414,2.075
		c0.275,0.655,0.649,1.234,1.122,1.736c0.473,0.503,1.024,0.903,1.657,1.202c0.632,0.298,1.312,0.447,2.038,0.447
		s1.406-0.149,2.038-0.447c0.632-0.299,1.185-0.699,1.657-1.202c0.472-0.502,0.847-1.081,1.122-1.736
		c0.276-0.655,0.415-1.347,0.415-2.075c0-0.714-0.139-1.401-0.415-2.064c-0.275-0.663-0.65-1.241-1.122-1.737
		c-0.473-0.494-1.025-0.892-1.657-1.19C414.745,35.146,414.065,34.997,413.338,34.997z M414.004,28.378l2.534,1.092l-2.927,2.207
		h-2.163L414.004,28.378z"/>
	<path class="st2" d="M438.778,48.432l-10.509-9.503v9.503h-3.058V32.463h0.327l10.508,9.655v-9.655h3.059v15.969H438.778z"/>
	<path class="st2" d="M213.969,58.656c0.786,0,1.525,0.149,2.218,0.447c0.691,0.299,1.292,0.703,1.802,1.213s0.914,1.11,1.213,1.802
		c0.298,0.692,0.447,1.431,0.447,2.218c0,0.786-0.131,1.515-0.394,2.185c-0.262,0.67-0.647,1.256-1.157,1.758
		c-0.51,0.503-1.154,0.896-1.934,1.18s-1.679,0.426-2.697,0.426h-3.562v4.763h-3.058v-15.99H213.969z M213.969,67.132
		c0.451,0,0.845-0.076,1.18-0.229s0.607-0.36,0.819-0.623c0.211-0.262,0.367-0.56,0.47-0.896c0.102-0.335,0.152-0.684,0.152-1.048
		c0-0.364-0.065-0.725-0.196-1.082c-0.131-0.356-0.32-0.673-0.568-0.95c-0.247-0.276-0.553-0.502-0.917-0.677
		s-0.786-0.263-1.268-0.263h-3.735v5.768H213.969z"/>
	<path class="st2" d="M225.59,61.364v3.998h7.733v2.774h-7.733v3.757h8.717v2.753h-11.774v-15.99h11.774v2.708H225.59z"/>
	<path class="st2" d="M241.384,74.646h-3.058v-15.99h7.265c0.817,0,1.564,0.135,2.243,0.403c0.678,0.27,1.258,0.648,1.739,1.137
		c0.481,0.487,0.857,1.07,1.127,1.747c0.27,0.678,0.405,1.417,0.405,2.218c0,1.209-0.303,2.265-0.908,3.167
		c-0.605,0.903-1.412,1.551-2.418,1.944c1.343,1.777,2.671,3.568,3.981,5.374h-3.648c-0.639-0.83-1.263-1.667-1.872-2.512
		c-0.61-0.845-1.22-1.704-1.829-2.578h-3.027V74.646z M241.384,66.848h4.203c0.275,0,0.562-0.055,0.859-0.164
		s0.562-0.276,0.795-0.502c0.231-0.226,0.425-0.506,0.577-0.841s0.229-0.729,0.229-1.18c0-0.233-0.029-0.51-0.087-0.83
		c-0.059-0.32-0.175-0.626-0.349-0.918c-0.174-0.291-0.421-0.538-0.74-0.742s-0.748-0.307-1.284-0.307h-4.203V66.848z"/>
	<path class="st2" d="M258.424,74.646h-3.059V58.678h3.059V74.646z"/>
	<path class="st2" d="M270.701,74.952c-1.136,0-2.206-0.219-3.211-0.655s-1.883-1.03-2.633-1.78s-1.344-1.628-1.78-2.633
		s-0.655-2.082-0.655-3.232c0-1.136,0.219-2.21,0.655-3.223c0.437-1.012,1.03-1.893,1.78-2.643s1.628-1.344,2.633-1.781
		c1.005-0.437,2.075-0.655,3.211-0.655c1.15,0,2.229,0.219,3.233,0.655c1.005,0.438,1.882,1.031,2.632,1.781s1.344,1.631,1.78,2.643
		c0.438,1.013,0.655,2.087,0.655,3.223c0,1.15-0.218,2.228-0.655,3.232c-0.437,1.005-1.03,1.883-1.78,2.633s-1.627,1.344-2.632,1.78
		S271.851,74.952,270.701,74.952z M270.711,61.212c-0.727,0-1.406,0.149-2.038,0.447c-0.633,0.299-1.185,0.696-1.657,1.19
		c-0.473,0.496-0.847,1.074-1.122,1.737c-0.276,0.663-0.414,1.351-0.414,2.064c0,0.729,0.138,1.42,0.414,2.075
		c0.275,0.655,0.649,1.234,1.122,1.736c0.473,0.503,1.024,0.903,1.657,1.202c0.632,0.298,1.312,0.447,2.038,0.447
		s1.406-0.149,2.038-0.447c0.632-0.299,1.185-0.699,1.657-1.202c0.472-0.502,0.847-1.081,1.122-1.736
		c0.276-0.655,0.415-1.347,0.415-2.075c0-0.714-0.139-1.401-0.415-2.064c-0.275-0.663-0.65-1.241-1.122-1.737
		c-0.473-0.494-1.025-0.892-1.657-1.19C272.118,61.361,271.438,61.212,270.711,61.212z"/>
	<path class="st2" d="M288.888,74.646h-6.304v-15.99h6.304c2.282,0,4.158,0.67,5.627,2.01c0.785,0.713,1.377,1.576,1.777,2.588
		c0.4,1.013,0.601,2.145,0.601,3.397c0,1.267-0.2,2.406-0.601,3.419c-0.4,1.012-0.992,1.875-1.777,2.588
		c-0.713,0.655-1.545,1.151-2.498,1.486C291.065,74.479,290.022,74.646,288.888,74.646z M285.642,71.938h3.255
		c0.568,0,1.144-0.065,1.727-0.196c0.582-0.131,1.11-0.39,1.583-0.775c0.474-0.386,0.863-0.921,1.169-1.605s0.459-1.58,0.459-2.688
		c0-1.106-0.153-2.006-0.459-2.698c-0.306-0.691-0.699-1.227-1.18-1.605c-0.48-0.378-1.013-0.633-1.595-0.765
		c-0.582-0.131-1.15-0.196-1.704-0.196h-3.255V71.938z"/>
	<path class="st2" d="M303.403,54.593l2.534,1.092l-2.927,2.207h-2.163L303.403,54.593z M303.906,74.646h-3.059V58.678h3.059V74.646
		z"/>
	<path class="st2" d="M308.078,72.55l1.66-2.447c0.801,0.554,1.627,1.03,2.479,1.431c0.852,0.401,1.744,0.602,2.676,0.602
		c0.495,0,0.932-0.062,1.311-0.187c0.379-0.123,0.699-0.283,0.962-0.48c0.262-0.196,0.458-0.422,0.59-0.677
		c0.131-0.255,0.196-0.506,0.196-0.754c0-0.32-0.099-0.593-0.295-0.819c-0.196-0.226-0.459-0.411-0.786-0.557
		c-0.328-0.146-0.714-0.27-1.158-0.372c-0.444-0.102-0.906-0.196-1.387-0.283c-0.321-0.059-0.692-0.128-1.114-0.208
		c-0.423-0.08-0.859-0.188-1.311-0.327c-0.452-0.139-0.896-0.32-1.333-0.547c-0.437-0.226-0.83-0.509-1.18-0.852
		c-0.35-0.342-0.63-0.75-0.841-1.224c-0.212-0.473-0.317-1.03-0.317-1.671c0-0.932,0.189-1.707,0.568-2.326s0.863-1.107,1.453-1.464
		s1.245-0.608,1.966-0.754s1.416-0.219,2.086-0.219s1.268,0.044,1.791,0.132c0.524,0.087,1.013,0.215,1.464,0.382
		c0.451,0.168,0.893,0.379,1.322,0.634c0.429,0.255,0.892,0.557,1.387,0.906l-1.704,2.403c-0.757-0.524-1.485-0.925-2.185-1.201
		c-0.699-0.277-1.435-0.416-2.206-0.416c-0.262,0-0.561,0.033-0.896,0.099s-0.652,0.172-0.95,0.317
		c-0.299,0.146-0.547,0.331-0.743,0.557s-0.295,0.499-0.295,0.819s0.116,0.59,0.35,0.808c0.232,0.219,0.531,0.401,0.896,0.547
		s0.765,0.27,1.202,0.371c0.437,0.102,0.858,0.204,1.267,0.306c0.306,0.073,0.666,0.146,1.081,0.219s0.845,0.175,1.289,0.306
		s0.885,0.306,1.321,0.524c0.438,0.219,0.827,0.499,1.169,0.841c0.342,0.343,0.619,0.765,0.83,1.268
		c0.211,0.502,0.317,1.11,0.317,1.823c0,0.83-0.146,1.552-0.438,2.163s-0.706,1.118-1.245,1.519s-1.18,0.702-1.922,0.906
		c-0.743,0.204-1.566,0.306-2.469,0.306c-0.83,0-1.562-0.062-2.195-0.186c-0.634-0.123-1.213-0.291-1.737-0.502
		s-1.02-0.463-1.485-0.754S308.573,72.898,308.078,72.55z"/>
	<path class="st2" d="M334.576,61.364h-4.565v13.282h-3.059V61.364h-4.588v-2.708h12.212V61.364z"/>
	<path class="st2" d="M341.042,74.646h-3.059V58.678h3.059V74.646z"/>
	<path class="st2" d="M360.484,70.714c-0.35,0.642-0.779,1.221-1.289,1.737s-1.074,0.961-1.692,1.332
		c-0.619,0.372-1.289,0.659-2.01,0.863s-1.468,0.306-2.239,0.306c-1.136,0-2.206-0.219-3.211-0.655s-1.883-1.03-2.633-1.78
		s-1.344-1.628-1.78-2.633c-0.438-1.005-0.655-2.075-0.655-3.211s0.218-2.206,0.655-3.211c0.437-1.005,1.03-1.882,1.78-2.633
		c0.75-0.75,1.628-1.343,2.633-1.78c1.005-0.437,2.075-0.655,3.211-0.655c0.771,0,1.519,0.103,2.239,0.306
		c0.721,0.204,1.391,0.492,2.01,0.863c0.618,0.371,1.183,0.815,1.692,1.332c0.51,0.518,0.939,1.089,1.289,1.715l-2.861,1.158
		c-0.233-0.35-0.507-0.677-0.819-0.983c-0.313-0.306-0.659-0.575-1.038-0.808c-0.379-0.233-0.779-0.415-1.201-0.547
		c-0.423-0.131-0.859-0.196-1.311-0.196c-0.729,0-1.409,0.149-2.043,0.448c-0.633,0.299-1.184,0.695-1.649,1.19
		s-0.837,1.074-1.113,1.736c-0.277,0.663-0.415,1.352-0.415,2.064c0,0.729,0.138,1.42,0.415,2.075
		c0.276,0.655,0.647,1.231,1.113,1.726c0.466,0.496,1.017,0.893,1.649,1.191c0.634,0.298,1.314,0.447,2.043,0.447
		c0.451,0,0.888-0.065,1.311-0.196c0.422-0.131,0.822-0.313,1.201-0.546c0.379-0.233,0.725-0.506,1.038-0.819
		c0.312-0.313,0.586-0.645,0.819-0.994L360.484,70.714z"/>
	<path class="st2" d="M361.423,74.646l8.17-15.969h0.307l8.17,15.969h-3.32l-1.245-2.512h-7.537l-1.224,2.512H361.423z
		 M367.453,69.469h4.565l-2.271-4.827L367.453,69.469z"/>
</g>
<g id="XMLID_3_">
	<rect id="XMLID_45_" class="st2" width="194.734" height="80.82"/>
	<g id="XMLID_24_">
		<path id="XMLID_43_" class="st8" d="M57.827,47.314c-0.597,1.095-1.332,2.084-2.202,2.967c-0.871,0.883-1.835,1.642-2.892,2.277
			c-1.058,0.634-2.202,1.126-3.433,1.474c-1.231,0.348-2.507,0.522-3.825,0.522c-1.94,0-3.769-0.373-5.486-1.12
			c-1.717-0.746-3.216-1.759-4.497-3.041c-1.282-1.281-2.295-2.78-3.041-4.497c-0.747-1.717-1.12-3.545-1.12-5.486
			s0.373-3.769,1.12-5.486c0.746-1.717,1.759-3.215,3.041-4.497c1.281-1.281,2.78-2.295,4.497-3.041
			c1.717-0.747,3.545-1.12,5.486-1.12c1.319,0,2.594,0.174,3.825,0.522c1.231,0.349,2.376,0.839,3.433,1.474
			c1.057,0.635,2.021,1.394,2.892,2.277c0.87,0.883,1.605,1.86,2.202,2.93l-4.889,1.978c-0.399-0.597-0.865-1.157-1.4-1.679
			c-0.535-0.523-1.126-0.983-1.773-1.381c-0.647-0.397-1.331-0.709-2.052-0.933c-0.722-0.224-1.468-0.336-2.239-0.336
			c-1.244,0-2.407,0.256-3.489,0.765c-1.082,0.51-2.022,1.188-2.818,2.034c-0.797,0.846-1.431,1.835-1.903,2.967
			c-0.473,1.133-0.709,2.308-0.709,3.527c0,1.244,0.236,2.426,0.709,3.545c0.472,1.12,1.107,2.102,1.903,2.948
			c0.796,0.846,1.735,1.524,2.818,2.034c1.082,0.51,2.245,0.765,3.489,0.765c0.771,0,1.517-0.113,2.239-0.336
			c0.721-0.224,1.405-0.535,2.052-0.933c0.647-0.397,1.238-0.864,1.773-1.4c0.535-0.535,1.001-1.101,1.4-1.698L57.827,47.314z"/>
		<path id="XMLID_40_" class="st8" d="M70.813,54.031h-5.224v-27.28h5.224V54.031z"/>
		<path id="XMLID_36_" class="st8" d="M92.682,26.714c1.344,0,2.606,0.255,3.788,0.765c1.181,0.51,2.208,1.201,3.079,2.071
			c0.87,0.871,1.561,1.897,2.071,3.079c0.51,1.182,0.765,2.444,0.765,3.788c0,1.343-0.224,2.588-0.672,3.731
			c-0.448,1.145-1.107,2.146-1.978,3.004c-0.871,0.859-1.972,1.53-3.303,2.015s-2.868,0.728-4.609,0.728h-6.083v8.135h-5.225V26.714
			H92.682z M92.682,41.194c0.771,0,1.443-0.131,2.015-0.392c0.572-0.261,1.039-0.616,1.4-1.064c0.36-0.448,0.628-0.957,0.802-1.53
			c0.174-0.572,0.261-1.169,0.261-1.791s-0.112-1.238-0.336-1.847c-0.224-0.61-0.548-1.151-0.97-1.623
			c-0.423-0.473-0.946-0.859-1.568-1.157s-1.343-0.448-2.164-0.448h-6.381v9.852H92.682z"/>
		<path id="XMLID_34_" class="st8" d="M114.028,31.342v6.829h13.21v4.74h-13.21v6.419h14.89v4.702h-20.115V26.714h20.115v4.628
			H114.028z"/>
		<path id="XMLID_26_" class="st8" d="M142.501,54.031h-5.225V26.714h12.411c1.396,0,2.673,0.231,3.832,0.691
			c1.159,0.461,2.149,1.107,2.972,1.94c0.822,0.834,1.464,1.829,1.926,2.985c0.461,1.157,0.692,2.42,0.692,3.788
			c0,2.065-0.517,3.869-1.552,5.411c-1.035,1.543-2.412,2.65-4.131,3.321c2.295,3.035,4.562,6.095,6.802,9.18h-6.232
			c-1.092-1.418-2.157-2.849-3.199-4.291c-1.041-1.443-2.083-2.911-3.124-4.403h-5.17V54.031z M142.501,40.708h7.179
			c0.471,0,0.961-0.093,1.469-0.28c0.509-0.187,0.961-0.472,1.358-0.858c0.396-0.386,0.725-0.864,0.986-1.437
			c0.26-0.572,0.391-1.244,0.391-2.015c0-0.398-0.049-0.871-0.148-1.418c-0.1-0.547-0.298-1.069-0.596-1.568
			c-0.297-0.497-0.719-0.92-1.264-1.269c-0.546-0.348-1.277-0.522-2.195-0.522h-7.179V40.708z"/>
	</g>
</g>
</svg>
