<?xml version="1.0" encoding="utf-8"?>
<!-- Generator: Adobe Illustrator 20.1.0, SVG Export Plug-In . SVG Version: 6.00 Build 0)  -->
<svg version="1.1" id="Capa_1" xmlns="http://www.w3.org/2000/svg" xmlns:xlink="http://www.w3.org/1999/xlink" x="0px" y="0px"
	 viewBox="0 0 261.492 57.166" style="enable-background:new 0 0 261.492 57.166;" xml:space="preserve">
<style type="text/css">
	.st0{fill:#E9EAE8;}
	.st1{fill:#282838;}
	.st2{fill:#FFFFFF;}
	.st3{fill:none;stroke:#282838;stroke-width:3;stroke-miterlimit:10;}
	.st4{fill:none;stroke:#282838;stroke-width:2;stroke-miterlimit:10;}
	.st5{fill:none;stroke:#282838;stroke-miterlimit:10;}
	.st6{fill:none;stroke:#282838;stroke-width:0.25;stroke-miterlimit:10;}
	.st7{fill:#F5F1ED;}
	.st8{fill:#008D36;}
	.st9{fill:none;stroke:#FFFFFF;stroke-width:0.5;stroke-miterlimit:10;}
	.st10{fill:#00A3E2;}
</style>
<g id="XMLID_4_">
	<path id="XMLID_59_" class="st2" d="M53.547,42.535c-1.207,2.213-2.691,4.211-4.45,5.995c-1.76,1.785-3.708,3.318-5.844,4.601
		c-2.138,1.282-4.45,2.275-6.939,2.978c-2.489,0.703-5.066,1.056-7.731,1.056c-3.922,0-7.617-0.753-11.086-2.262
		c-3.469-1.508-6.499-3.556-9.087-6.147c-2.591-2.589-4.639-5.618-6.147-9.087C0.753,36.2,0,32.505,0,28.583
		s0.753-7.617,2.262-11.086c1.508-3.469,3.556-6.498,6.147-9.087c2.589-2.59,5.618-4.639,9.087-6.147
		C20.966,0.753,24.661,0,28.583,0c2.665,0,5.242,0.352,7.731,1.056c2.489,0.705,4.801,1.697,6.939,2.978
		c2.136,1.283,4.084,2.817,5.844,4.601c1.759,1.785,3.243,3.759,4.45,5.92l-9.88,3.997c-0.806-1.207-1.748-2.337-2.828-3.393
		c-1.082-1.057-2.276-1.986-3.583-2.791c-1.308-0.803-2.69-1.433-4.148-1.885c-1.459-0.452-2.967-0.68-4.525-0.68
		c-2.515,0-4.865,0.517-7.051,1.547c-2.188,1.031-4.086,2.401-5.694,4.11c-1.61,1.71-2.892,3.708-3.847,5.995
		c-0.956,2.289-1.433,4.665-1.433,7.127c0,2.515,0.477,4.902,1.433,7.165c0.954,2.263,2.236,4.249,3.847,5.958
		c1.608,1.71,3.507,3.081,5.694,4.11c2.186,1.031,4.536,1.547,7.051,1.547c1.558,0,3.066-0.227,4.525-0.68
		c1.458-0.452,2.84-1.081,4.148-1.885c1.307-0.803,2.501-1.747,3.583-2.828c1.081-1.081,2.023-2.225,2.828-3.431L53.547,42.535z"/>
	<path id="XMLID_54_" class="st2" d="M79.791,56.11H69.233V0.979h10.558V56.11z"/>
	<path id="XMLID_51_" class="st2" d="M123.986,0.904c2.716,0,5.267,0.516,7.656,1.547c2.387,1.031,4.461,2.426,6.222,4.185
		c1.759,1.76,3.154,3.834,4.185,6.222c1.031,2.389,1.547,4.94,1.547,7.656c0,2.715-0.452,5.23-1.358,7.541
		c-0.904,2.314-2.238,4.338-3.997,6.072c-1.76,1.735-3.985,3.092-6.675,4.073c-2.69,0.981-5.796,1.47-9.314,1.47h-12.293V56.11H99.4
		V0.904H123.986z M123.986,30.167c1.558,0,2.916-0.265,4.073-0.792c1.156-0.528,2.099-1.244,2.828-2.15
		c0.728-0.905,1.269-1.934,1.622-3.092c0.351-1.156,0.527-2.362,0.527-3.619s-0.226-2.501-0.678-3.733
		c-0.452-1.232-1.107-2.326-1.96-3.281c-0.856-0.956-1.911-1.735-3.168-2.339c-1.257-0.603-2.715-0.905-4.374-0.905h-12.897v19.91
		H123.986z"/>
	<path id="XMLID_49_" class="st2" d="M167.125,10.257v13.801h26.698v9.578h-26.698v12.972h30.092v9.502h-40.651V0.904h40.651v9.352
		H167.125z"/>
	<path id="XMLID_39_" class="st2" d="M224.668,56.11h-10.559V0.904h25.081c2.822,0,5.402,0.466,7.744,1.395
		c2.342,0.931,4.344,2.238,6.005,3.922c1.662,1.685,2.96,3.695,3.892,6.033c0.931,2.339,1.398,4.891,1.398,7.656
		c0,4.174-1.046,7.818-3.136,10.935c-2.091,3.118-4.874,5.355-8.348,6.713c4.637,6.134,9.22,12.318,13.746,18.552h-12.596
		c-2.206-2.866-4.36-5.757-6.465-8.673c-2.104-2.916-4.21-5.883-6.314-8.899h-10.449V56.11z M224.668,29.186h14.508
		c0.952,0,1.941-0.189,2.968-0.566c1.028-0.377,1.943-0.954,2.743-1.734c0.801-0.78,1.465-1.747,1.993-2.903
		c0.526-1.157,0.79-2.514,0.79-4.073c0-0.805-0.1-1.76-0.3-2.866c-0.201-1.106-0.602-2.161-1.204-3.168
		c-0.601-1.004-1.453-1.859-2.555-2.564c-1.103-0.703-2.581-1.056-4.435-1.056h-14.508V29.186z"/>
</g>
</svg>
