<?xml version="1.0" encoding="utf-8"?>
<!-- Generator: Adobe Illustrator 20.1.0, SVG Export Plug-In . SVG Version: 6.00 Build 0)  -->
<svg version="1.1" id="Capa_1" xmlns="http://www.w3.org/2000/svg" xmlns:xlink="http://www.w3.org/1999/xlink" x="0px" y="0px"
	 viewBox="0 0 72.924 72.366" style="enable-background:new 0 0 72.924 72.366;" xml:space="preserve">
<style type="text/css">
	.st0{fill:#FFFFFF;}
	.st1{fill:none;stroke:#000000;stroke-width:3;stroke-miterlimit:10;}
	.st2{fill:none;stroke:#000000;stroke-miterlimit:10;}
</style>
<g>
	<g>
		<path class="st0" d="M61.237,23.866c-1.064,0-2.093-0.216-3.058-0.645c-2.721-1.205-4.485-3.907-4.495-6.883
			c-0.006-2.017,0.774-3.915,2.195-5.346c1.422-1.43,3.316-2.221,5.333-2.227c0.007,0,0.016,0,0.023,0
			c4.153,0,7.537,3.372,7.55,7.527c0.012,4.164-3.364,7.561-7.527,7.574C61.251,23.866,61.244,23.866,61.237,23.866z M61.235,11.22
			c-0.005,0-0.01,0-0.016,0c-1.361,0.004-2.639,0.538-3.599,1.503s-1.486,2.247-1.482,3.608c0.006,2.009,1.197,3.834,3.035,4.648
			c0.655,0.29,1.338,0.446,2.077,0.434c2.81-0.008,5.089-2.301,5.08-5.112C66.322,13.496,64.038,11.22,61.235,11.22z"/>
		<path class="st1" d="M60.73,23.695"/>
		<path class="st0" d="M49.393,34.968l-0.016-5.495c-0.006-2.148,1.297-4.131,3.669-5.581c2.182-1.334,5.049-2.075,8.074-2.083
			c1.791,0.034,4.523,0.339,6.882,1.324c4.045,1.687,4.901,4.341,4.906,6.269l0.016,5.495L49.393,34.968z M61.161,24.262
			c-0.012,0-0.023,0-0.034,0c-2.582,0.008-4.998,0.62-6.801,1.723c-1.613,0.986-2.499,2.222-2.495,3.48l0.009,3.041l18.623-0.056
			l-0.009-3.041c-0.005-1.725-1.148-3.075-3.397-4.013C65.048,24.558,62.635,24.262,61.161,24.262z"/>
	</g>
	<g>
		<path class="st0" d="M11.989,23.695c-0.013,0-0.026,0-0.039,0c-1.07-0.005-2.104-0.229-3.074-0.669
			c-2.712-1.227-4.455-3.942-4.44-6.918c0.01-2.016,0.804-3.909,2.237-5.327c1.433-1.42,3.332-2.23,5.349-2.186
			c2.017,0.01,3.909,0.804,5.328,2.237s2.195,3.333,2.186,5.349l-1.227-0.006l1.227,0.006c-0.01,2.017-0.804,3.91-2.237,5.329
			C15.877,22.921,13.992,23.695,11.989,23.695z M11.987,11.05c-1.352,0-2.624,0.523-3.586,1.475
			c-0.967,0.957-1.503,2.234-1.51,3.596c-0.01,2.009,1.167,3.842,2.998,4.671c0.653,0.296,1.35,0.447,2.073,0.45
			c0.009,0,0.018,0,0.026,0c1.352,0,2.624-0.523,3.585-1.475c0.967-0.958,1.503-2.235,1.51-3.596s-0.517-2.643-1.475-3.611
			s-2.235-1.503-3.596-1.51C12.003,11.05,11.995,11.05,11.987,11.05z"/>
		<path class="st1" d="M11.424,23.52"/>
		<path class="st0" d="M23.531,34.817L0,34.704l0.026-5.495c0.021-4.258,5.156-7.573,11.709-7.573c0.031,0,0.062,0,0.094,0
			c4.73,0.024,11.756,2.091,11.729,7.686L23.531,34.817z M2.466,32.261l18.623,0.09l0.015-3.041c0.02-4.223-6.871-5.208-9.287-5.22
			c-0.026,0-0.052,0-0.078,0c-5.013,0-9.245,2.34-9.259,5.13L2.466,32.261z"/>
	</g>
	<g>
		<path class="st0" d="M36.709,61.298c-1.066,0-2.099-0.22-3.069-0.652c-2.719-1.213-4.475-3.921-4.476-6.896
			c-0.002-4.162,3.384-7.551,7.548-7.552c0,0,0.001,0,0.002,0c2.017,0,3.912,0.784,5.338,2.21s2.212,3.322,2.212,5.339v-0.001
			c0,0.001,0,0.001,0,0.001c0.001,2.016-0.784,3.912-2.21,5.339s-3.322,2.212-5.338,2.213
			C36.714,61.298,36.711,61.298,36.709,61.298z M36.714,48.651L36.714,48.651c-2.811,0.002-5.096,2.288-5.096,5.097
			c0,2.009,1.186,3.837,3.022,4.656c0.653,0.292,1.35,0.439,2.07,0.439c0.002,0,0.003,0,0.004,0c1.362,0,2.642-0.53,3.604-1.494
			c0.962-0.963,1.492-2.242,1.491-3.603v-0.001c0-1.361-0.531-2.641-1.493-3.604C39.354,49.181,38.075,48.651,36.714,48.651z"/>
		<path class="st1" d="M36.189,61.125"/>
		<path class="st0" d="M24.822,72.366l-0.002-5.495c-0.001-4.278,5.166-7.631,11.764-7.632c0.002,0,0.003,0,0.004,0
			c4.729,0,11.762,2.031,11.763,7.627l0.001,5.495L24.822,72.366z M36.587,61.693c-0.001,0-0.002,0-0.002,0
			c-5.047,0.002-9.311,2.373-9.31,5.178l0.001,3.041l18.623-0.006v-3.041C45.896,62.643,39.005,61.693,36.587,61.693z"/>
	</g>
	<path class="st2" d="M53.673,8.289"/>
	<path class="st0" d="M17.818,67.919C8.154,62.081,1.811,52.33,0.415,41.165l2.977-0.373C4.673,51.04,10.497,59.991,19.37,65.351
		L17.818,67.919z"/>
	<path class="st0" d="M55.433,67.975l-1.543-2.572c8.857-5.315,14.703-14.217,16.037-24.42l2.975,0.389
		C71.448,52.488,65.081,62.185,55.433,67.975z"/>
	<path class="st1" d="M71.667,34.774"/>
	<path class="st0" d="M52.41,6.919C47.602,4.355,42.159,3,36.672,3c-5.427,0-10.606,1.257-15.393,3.736l-1.38-2.664
		C25.043,1.408,30.843,0,36.672,0C42.65,0,48.58,1.477,53.823,4.271L52.41,6.919z"/>
</g>
</svg>
