<?xml version="1.0" encoding="utf-8"?>
<!-- Generator: Adobe Illustrator 20.1.0, SVG Export Plug-In . SVG Version: 6.00 Build 0)  -->
<svg version="1.1" id="Capa_1" xmlns="http://www.w3.org/2000/svg" xmlns:xlink="http://www.w3.org/1999/xlink" x="0px" y="0px"
	 viewBox="0 0 71.685 72.917" style="enable-background:new 0 0 71.685 72.917;" xml:space="preserve">
<style type="text/css">
	.st0{fill:#FFFFFF;}
</style>
<g>
	<path class="st0" d="M29.447,71.957c-10.276-8.989-16.169-21.969-16.169-35.611c0-13.54,5.82-26.455,15.967-35.434l1.988,2.247
		c-9.504,8.41-14.955,20.506-14.955,33.187c0,12.777,5.52,24.933,15.145,33.353L29.447,71.957z"/>
	<path class="st0" d="M36.001,72.917c-1.98,0-3.956-0.168-5.914-0.503c-15.159-2.595-27.05-14.707-29.589-30.14
		C-2.768,22.432,10.432,3.679,29.921,0.472C45.358-2.073,60.548,5.757,67.71,19.948c1.691,3.354,2.86,6.952,3.478,10.694l0,0
		c1.58,9.607-0.606,19.245-6.157,27.139c-5.558,7.901-13.821,13.109-23.268,14.663C39.847,72.759,37.922,72.917,36.001,72.917z
		 M35.705,2.998c-1.752,0-3.522,0.142-5.296,0.434C12.551,6.371,0.461,23.577,3.458,41.788c2.332,14.17,13.237,25.29,27.136,27.669
		c3.525,0.604,7.12,0.613,10.683,0.026c8.645-1.422,16.209-6.19,21.3-13.429c5.097-7.246,7.104-16.098,5.65-24.925l0,0
		c-0.566-3.442-1.642-6.75-3.195-9.831C59.288,9.918,47.925,2.998,35.705,2.998z"/>
	<rect x="34.424" y="0.558" transform="matrix(1 -0.0039 0.0039 1 -0.1398 0.1401)" class="st0" width="3" height="70.866"/>
	<path class="st0" d="M65.828,53.932c-9.803-3.66-20.116-5.517-30.654-5.517c-10.213,0-20.228,1.746-29.768,5.191l-1.019-2.822
		c9.867-3.562,20.225-5.369,30.786-5.369c10.897,0,21.563,1.92,31.703,5.706L65.828,53.932z"/>
	<path class="st0" d="M35.612,26.909c-10.444,0-20.692-1.767-30.458-5.252l-0.824-0.298l1.034-2.816l0.798,0.29
		c9.442,3.369,19.351,5.078,29.451,5.078c10.507,0,20.793-1.846,30.572-5.486l1.047,2.812C57.116,25,46.479,26.909,35.612,26.909z"
		/>
	<path class="st0" d="M42.066,72.166l-1.975-2.258c9.633-8.421,15.157-20.582,15.157-33.365c0-12.636-5.419-24.703-14.867-33.108
		l1.994-2.241c10.088,8.974,15.873,21.858,15.873,35.35C58.249,50.191,52.351,63.176,42.066,72.166z"/>
</g>
</svg>
