<?xml version="1.0" encoding="utf-8"?>
<!-- Generator: Adobe Illustrator 20.1.0, SVG Export Plug-In . SVG Version: 6.00 Build 0)  -->
<svg version="1.1" id="Capa_1" xmlns="http://www.w3.org/2000/svg" xmlns:xlink="http://www.w3.org/1999/xlink" x="0px" y="0px"
	 viewBox="0 0 50.956 70.866" style="enable-background:new 0 0 50.956 70.866;" xml:space="preserve">
<style type="text/css">
	.st0{fill:none;stroke:#000000;stroke-width:3;stroke-miterlimit:10;}
	.st1{fill:#FFFFFF;}
</style>
<g>
	<path class="st0" d="M23.727,58.03"/>
	<path class="st0" d="M38.131,53.222"/>
	<path class="st0" d="M16.151,1.723"/>
	<g>
		<g>
			<path class="st1" d="M40.033,59.469H13.066l-0.054-1.383c-0.18-4.635-2.935-9.091-5.853-13.808C3.639,38.586,0,32.702,0,25.478
				C0,11.429,11.429,0,25.478,0s25.478,11.429,25.478,25.478c0,6.996-2.983,12.61-5.869,18.039
				c-2.569,4.833-4.995,9.399-5.041,14.526L40.033,59.469z M15.774,56.591h21.46c0.433-5.242,2.91-9.904,5.313-14.425
				c2.719-5.117,5.531-10.41,5.531-16.688c0-12.462-10.138-22.6-22.6-22.6s-22.6,10.138-22.6,22.6
				c0,6.405,3.421,11.936,6.729,17.286C12.46,47.377,15.167,51.756,15.774,56.591z"/>
		</g>
		<path class="st1" d="M33.392,58.314c-0.098,0-0.198-0.009-0.297-0.031c-0.778-0.163-1.276-0.926-1.113-1.703l5.971-28.506
			L27.739,39.591c-0.272,0.307-0.661,0.483-1.072,0.484c-0.002,0-0.003,0-0.005,0c-0.408,0-0.797-0.173-1.071-0.478L15.385,28.236
			L22.05,56.21c0.185,0.773-0.293,1.55-1.066,1.733c-0.774,0.19-1.549-0.292-1.733-1.066l-7.977-33.479
			c-0.153-0.64,0.149-1.302,0.732-1.608c0.584-0.308,1.299-0.176,1.739,0.313l12.911,14.372L39.397,22.11
			c0.433-0.487,1.143-0.625,1.723-0.331c0.583,0.293,0.896,0.942,0.762,1.581l-7.083,33.811
			C34.657,57.849,34.058,58.314,33.392,58.314z"/>
	</g>
	<g>
		<path class="st1" d="M13.21,63.659h27.106"/>
		<rect x="13.209" y="62.219" class="st1" width="27.106" height="2.878"/>
	</g>
	<g>
		<path class="st1" d="M16.366,69.427h21.039"/>
		<rect x="16.366" y="67.988" class="st1" width="21.039" height="2.878"/>
	</g>
</g>
</svg>
